<svg width="24" height="27" fill="none" xmlns="http://www.w3.org/2000/svg"><path d="M3.273 0A3.29 3.29 0 000 3.273v9.818h2.182V3.273c0-.614.477-1.091 1.09-1.091h9.819v6.545h6.545v4.364h2.182V7.185L14.633 0H3.274zm12 3.724l2.82 2.821h-2.82v-2.82zM0 15.273v10.909h3.273a3.29 3.29 0 003.272-3.273v-4.363a3.29 3.29 0 00-3.272-3.273H0zm12 0a3.29 3.29 0 00-3.273 3.273v4.363A3.29 3.29 0 0012 26.182a3.29 3.29 0 003.273-3.273v-4.363A3.29 3.29 0 0012 15.273zm8.727 0a3.29 3.29 0 00-3.273 3.273v4.363a3.29 3.29 0 003.273 3.273A3.29 3.29 0 0024 22.909h-2.182c0 .614-.477 1.091-1.09 1.091a1.077 1.077 0 01-1.092-1.09v-4.364c0-.615.477-1.091 1.091-1.091s1.091.476 1.091 1.09H24a3.29 3.29 0 00-3.273-3.272zM2.182 17.454h1.09c.615 0 1.092.477 1.092 1.091v4.364c0 .614-.477 1.091-1.091 1.091H2.182v-6.546zm9.818 0c.614 0 1.09.477 1.09 1.091v4.364c0 .614-.476 1.091-1.09 1.091-.614 0-1.09-.477-1.09-1.09v-4.364c0-.615.476-1.091 1.09-1.091z" fill="#1D327B"/></svg>