<svg width="250" height="95" fill="none" xmlns="http://www.w3.org/2000/svg"><path d="M87.54 83.93c-.191-.192-.191-.384-.191-.768.191-.768.765-1.152 1.722-1.152h1.339l-.765 1.92h-1.34c-.19.192-.574 0-.765 0zm-1.339 3.839l2.296-2.496h.956l-.765 2.496h1.722l2.296-7.102h-3.253c-.956 0-1.913.192-2.487.575-.574.384-.956.96-1.148 1.92-.191.96.192 1.536.957 1.92l-2.678 2.687H86.2zm-8.61 0l4.592-4.799-1.53 4.799h1.722l2.295-7.102h-1.913l-4.592 4.798 1.531-4.798h-1.722l-2.296 7.102h1.914zm-8.8 0l.957-3.071h2.87l-.957 3.07h1.722l2.295-7.101h-1.721L73 83.354h-3.061l.956-2.687h-1.721l-2.296 7.102h1.913zm-7.844-1.92c.191-.767 1.148-1.151 3.252-1.151h.192l-.192.384c-.191.575-.382.96-.956 1.151-.383.384-.957.384-1.34.384-.574.192-.956-.192-.956-.768zm2.678 1.152c0 .384-.191.576-.191.768h1.53c0-.384.192-.96.383-1.536l.957-2.88c0-.191.191-.383.191-.575 0-.576 0-.96-.191-1.344-.192-.383-.574-.575-.957-.767-.382-.192-.765-.192-1.34-.192-1.147 0-2.104.384-3.06.96l.382 1.151c.766-.384 1.531-.768 2.105-.768.957 0 1.34.384 1.148.96 0 .192 0 .384-.191.384-3.444 0-5.166.96-5.549 2.687-.191.576 0 1.152.383 1.344.383.384.956.384 1.53.384 1.531.384 2.296.192 2.87-.576zm-11.288.768l1.914-5.759h2.87l-1.914 5.759h1.722l2.296-7.102H52.91l-2.296 7.102h1.722zm-11.096 0l1.722-5.183.382 5.183h.957l4.018-5.183-1.722 5.183h1.722l2.295-7.102h-2.487l-3.635 4.798-.191-4.606h-2.296L39.71 87.96h1.53v-.192zm-7.844-1.728c-.192-.384-.383-.768-.192-1.343.192-.768.383-1.344.957-1.92.574-.576 1.148-.768 1.913-.768.574 0 .957.192 1.148.576.191.384.383.768.191 1.344-.19.768-.382 1.343-.956 1.92-.574.575-1.148.767-1.913.767-.574 0-.957-.192-1.148-.576zm4.209.768c.956-.768 1.53-1.92 1.722-3.071.19-.96 0-1.728-.574-2.304-.574-.575-1.34-.767-2.296-.767-1.34 0-2.296.383-3.253 1.343-.956.768-1.53 1.92-1.721 3.072-.192.96 0 1.727.573 2.303.574.576 1.34.768 2.296.768 1.148-.192 2.296-.576 3.253-1.344zm-12.819.96l1.148-3.455 1.913 3.455h2.105l-2.105-3.647 4.4-3.455h-2.295l-3.826 3.07.956-3.07h-1.722l-2.296 7.102h1.722zm96.614-19.003c-.191-.192-.191-.384-.191-.768.191-.768.765-1.152 1.722-1.152h1.339l-.765 1.92h-1.34c-.382.192-.574 0-.765 0zm-1.53 4.03l2.295-2.495h.957l-.765 2.496h1.722l2.295-7.103h-3.252c-.957 0-1.913.192-2.487.576-.574.384-.957.96-1.148 1.92-.191.96.191 1.535.957 1.92l-2.679 2.687h2.105zm-7.653-2.11c.191-.769 1.148-1.153 3.252-1.153h.192l-.192.384c-.191.576-.382.96-.956 1.152-.383.384-.957.384-1.34.384-.574.192-.956-.192-.956-.768zm2.678 1.15c0 .385-.191.577-.191.769h1.53c0-.384.192-.96.383-1.536l.957-2.88c0-.191.191-.383.191-.575 0-.576 0-.96-.191-1.344-.192-.384-.574-.575-.957-.767-.383-.192-.765-.192-1.339-.192-1.148 0-2.105.383-3.061.96l.382 1.151c.766-.384 1.531-.768 2.105-.768.957 0 1.339.384 1.148.96 0 .192 0 .384-.191.384-3.444 0-5.166.96-5.549 2.687-.191.576 0 1.152.383 1.344.383.384.956.384 1.53.384 1.531.384 2.296.192 2.87-.576zm-11.288.96l.957-3.07h2.87l-.957 3.07h1.722l2.296-7.102h-1.722l-.957 2.688h-3.061l.957-2.688h-1.722l-2.296 7.103h1.913zm-5.357 0l1.914-5.758h2.295l.383-1.344h-6.122l-.383 1.344h2.296l-1.913 5.759h1.53zm-9.374-1.727c-.192-.384-.383-.768-.192-1.344.192-.767.383-1.343.957-1.92.574-.575 1.148-.767 1.913-.767.574 0 .957.192 1.148.576.191.384.383.768.191 1.344-.19.767-.382 1.535-.956 1.92-.574.575-1.148.767-1.913.767l-1.148-.576zm-2.487 5.183l1.53-4.607c.383.96 1.148 1.344 2.296 1.344s2.105-.384 3.061-1.344c.957-.768 1.34-1.92 1.53-3.071.192-.96 0-1.728-.382-2.304-.383-.575-1.148-.767-2.105-.767-1.147 0-2.104.383-2.678 1.343l.383-1.152h-1.722l-3.635 10.558h1.722zm-6.697-5.375c-.19-.384-.382-.768-.19-1.343.19-.768.382-1.344.956-1.92.574-.576 1.148-.768 1.913-.768.574 0 .957.192 1.148.576.191.384.382.768.191 1.344-.191.767-.382 1.343-.957 1.92-.574.575-1.147.767-1.913.767-.382 0-.956-.192-1.148-.576zm4.21.768c.956-.768 1.53-1.92 1.721-3.071.192-.96 0-1.728-.574-2.304-.574-.575-1.339-.767-2.296-.767-1.339 0-2.295.383-3.252 1.343-.956.768-1.53 1.92-1.722 3.071-.191.96 0 1.728.574 2.304.574.576 1.34.96 2.296.96 1.148-.192 2.296-.768 3.252-1.536zm-13.584 1.152l1.913-5.759h2.87l-1.913 5.759h1.721l2.296-7.103h-6.313l-2.296 7.103h1.722zm-2.487-1.152l-.766-.96c-.574.576-1.148.768-1.913.768-.574 0-.957-.192-1.34-.576-.19-.384-.382-.768-.19-1.343.19-.768.382-1.344.956-1.92.574-.576 1.148-.768 1.913-.768.383 0 .574 0 .766.192l.574.576 1.339-.96c-.383-.768-1.148-1.151-2.487-1.151-1.34 0-2.296.383-3.253 1.343-.956.96-1.53 1.92-1.722 3.071-.191.96 0 1.728.574 2.304.574.576 1.34.768 2.296.768 1.148 0 2.296-.576 3.253-1.344zm-13.393 1.152l.957-3.072h2.87l-.957 3.072h1.722l2.296-7.103h-1.722l-.957 2.688h-2.87l.957-2.688h-1.722l-2.296 7.103h1.722zm-7.844-2.112c.191-.768 1.148-1.151 3.252-1.151h.192l-.192.383c-.19.576-.382.96-.956 1.152-.383.384-.957.384-1.34.384-.573.192-.956-.192-.956-.768zm2.678 1.152c0 .384-.19.576-.19.768h1.53c0-.384.191-.96.382-1.536l.957-2.88c0-.191.191-.383.191-.575 0-.576 0-.96-.191-1.344-.191-.384-.574-.575-.957-.767-.382-.192-.765-.192-1.339-.192-1.148 0-2.104.383-3.061.96l.383 1.151c.765-.384 1.53-.768 2.104-.768.957 0 1.34.384 1.148.96 0 .192 0 .384-.191.384-3.444 0-5.166.96-5.549 2.687-.19.576 0 1.152.383 1.344.383.384.957.384 1.53.384 1.531.384 2.297.192 2.87-.576zm-10.713-.768c-.192-.384-.383-.768-.192-1.344.192-.767.383-1.343.957-1.92.574-.575 1.148-.767 1.913-.767.574 0 .957.192 1.148.576.191.384.383.768.191 1.344-.191.767-.382 1.535-.956 1.92-.574.575-1.148.767-1.913.767-.574-.192-.957-.384-1.148-.576zm-2.488 5.183l1.531-4.607c.383.96 1.148 1.344 2.296 1.344s2.104-.384 3.061-1.344c.957-.768 1.34-1.92 1.53-3.071.192-.96 0-1.728-.382-2.304-.383-.575-1.148-.767-2.105-.767-1.148 0-2.104.383-2.678 1.343l.383-1.152h-1.722L34.35 76.252h1.721zm-4.209-3.455l1.914-5.759h2.295l.383-1.344h-6.122l-.383 1.344h2.296l-1.913 5.759h1.53z" fill="#000"/><path d="M136.903 54.177l6.505-19.58h-6.887l2.487-7.486h22.384l-2.487 7.486h-6.696l-6.505 19.58h-8.801zm35.969-10.747a5.222 5.222 0 01-1.53 3.072c-.766.768-1.914 1.344-3.062 1.344-.956 0-1.721-.192-2.104-.768-.383-.576-.574-1.152-.383-2.112.192-1.151.766-2.303 1.531-3.07.765-.769 1.913-1.345 3.061-1.345.957 0 1.722.192 2.104.768.383.576.574 1.152.383 2.112zm7.27-7.485c-1.148-1.536-3.061-2.496-5.739-2.496-2.296 0-4.401.96-6.123 2.688l.766-2.112h-8.036l-9.757 29.369h8.609l3.635-10.75c.383.576.957 1.152 1.914 1.536a7.651 7.651 0 002.869.576c3.253 0 6.123-1.152 8.61-3.647 2.487-2.495 4.018-5.375 4.591-8.83.383-2.687 0-4.607-1.339-6.334zm14.163 9.978l-.191.576c-.383.767-.765 1.535-1.53 2.111a3.67 3.67 0 01-2.296.768c-1.148 0-1.722-.384-1.531-1.344.191-1.343 1.913-2.111 4.974-2.111h.574zm7.462-10.75c-1.339-1.151-3.635-1.92-6.505-1.92-1.531 0-3.252.385-5.166.96-1.913.576-3.443 1.536-4.783 2.688l3.062 4.223c1.53-1.152 3.061-1.728 4.783-1.728.765 0 1.339.192 1.721.384.383.192.574.576.383 1.152 0 .192 0 .384-.191.384-8.61 0-13.393 2.687-14.158 7.87-.191 1.728.191 3.071 1.148 4.031 1.148.96 2.296 1.344 4.018 1.344 2.296 0 4.4-.768 6.122-2.304-.191.576-.191 1.344-.383 1.92h7.27c.192-.96.383-2.112.766-3.072l2.487-7.486c.382-1.151.574-2.303.765-3.263.574-2.111 0-3.839-1.339-5.183zm12.813 19.003l2.487-7.294h-4.209l-2.487 7.294h-8.609l6.696-20.154h8.609l-2.104 6.526h4.209l2.104-6.526h8.61l-6.696 20.154h-8.61zm30.422-1.919l-2.487-5.758c-.957.767-1.914 1.151-3.062 1.151a3.162 3.162 0 01-2.295-.96c-.383-.575-.574-1.343-.574-2.11.191-1.153.765-2.304 1.722-3.072.956-.768 1.913-1.344 3.252-1.344 1.148 0 2.105.384 2.296 1.152l5.739-5.375c-1.147-1.727-3.635-2.687-7.078-2.687-3.635 0-6.697 1.152-9.566 3.647-2.679 2.495-4.401 5.375-4.783 8.83-.383 2.687.191 4.99 1.721 6.526 1.531 1.728 3.827 2.496 6.888 2.496s5.74-.768 8.227-2.496z" fill="#1D327B"/><path d="M58.85 54.177l5.548-15.74h-.192l-10.522 15.74H47.56v-15.74h-.19l-4.784 15.74H34.36l8.992-27.066H54.64v14.78h.192l9.374-14.78h12.436L67.46 54.177h-8.61zm29.273-13.054c0 .192 0 .384-.191.384h-6.314c.191-.575.765-1.151 1.53-1.727.766-.576 1.531-.768 2.488-.768.765 0 1.53.192 1.913.576.574.384.574.768.574 1.535zm5.74-5.374c-1.531-1.536-3.636-2.304-6.697-2.304-3.635 0-6.887 1.152-9.566 3.456-2.678 2.303-4.4 5.182-4.974 8.637-.383 2.88.191 5.183 1.913 6.719 1.722 1.535 4.21 2.303 7.27 2.303 4.21 0 7.653-1.152 10.523-3.647l-5.166-4.031c-1.148.96-2.295 1.344-3.635 1.344-.765 0-1.53-.192-2.104-.576-.574-.384-.957-.96-.766-1.728v-.192h13.775a11.608 11.608 0 001.148-3.647c.192-2.495-.382-4.607-1.722-6.334zm-.194 18.427l6.696-20.154h15.306l-2.105 6.334h-6.696l-4.592 13.82h-8.61zm31.943-8.253l-.191.576c-.192.767-.765 1.535-1.531 2.111a3.667 3.667 0 01-2.296.768c-1.148 0-1.721-.384-1.53-1.344.191-1.343 1.913-2.111 4.974-2.111h.574zm7.462-10.75c-1.34-1.151-3.635-1.92-6.505-1.92-1.531 0-3.253.385-5.166.96-1.913.576-3.444 1.536-4.783 2.688l3.061 4.223c1.531-1.152 3.061-1.728 4.783-1.728.765 0 1.339.192 1.722.384s.574.576.383 1.152c0 .192 0 .384-.192.384-8.609 0-13.392 2.687-14.157 7.87-.192 1.728.191 3.071 1.148 4.031 1.148.96 2.295 1.344 4.017 1.344 2.296 0 4.401-.768 6.123-2.304-.192.576-.192 1.344-.383 1.92h7.27c.191-.96.383-2.112.765-3.072l2.488-7.486c.382-1.151.574-2.303.765-3.263.574-2.111 0-3.839-1.339-5.183z" fill="#000"/><path d="M36.272 17.898L28.045 6.572l-4.783 15.165H7.192l8.226 11.325H31.49l4.783-15.164z" fill="#1D327B"/><path d="M15.417 33.063L2.216 37.285l13.01 9.406-4.975 15.356 13.201-4.414 4.975-15.165-13.01-9.406z" fill="#E30613"/></svg>