<svg width="24" height="24" fill="none" xmlns="http://www.w3.org/2000/svg"><path fill-rule="evenodd" clip-rule="evenodd" d="M13.042 2.637a2 2 0 00-2.085 0l-6.109 3.73c-1.29.787-1.274 2.665.029 3.43l6.132 3.606a2 2 0 002.031-.002L19.133 9.8c1.3-.768 1.313-2.643.025-3.43l-6.116-3.733zm6.56 8.834a1 1 0 011.087 1.676l-.098.063-6.595 3.748a2.906 2.906 0 01-2.7.096l-.181-.095-6.517-3.752a1 1 0 01.893-1.785l.105.052 6.513 3.75c.24.137.533.153.789.049l.107-.052 6.598-3.75zm-.096 3.66a1 1 0 011.086 1.676l-.098.063-6.595 3.747a2.906 2.906 0 01-2.7.097l-.181-.095L4.5 16.867a1 1 0 01.893-1.785l.105.052 6.513 3.75c.24.136.533.153.789.049l.107-.052 6.598-3.75z" fill="#fff"/></svg>