<svg width="24" height="24" fill="none" xmlns="http://www.w3.org/2000/svg"><path fill-rule="evenodd" clip-rule="evenodd" d="M14.027 8.033a5.665 5.665 0 01-2.298 6.364 9.117 9.117 0 014.298 3.294.755.755 0 01-.62 1.191H1.758a.758.758 0 01-.62-1.19 9.117 9.117 0 014.298-3.295A5.665 5.665 0 013.14 8.033 5.685 5.685 0 018.583 4a5.685 5.685 0 015.444 4.033zm7.446-.725a5.664 5.664 0 01-2.017 7.09 9.116 9.116 0 014.298 3.293.755.755 0 01-.62 1.191h-4.239a.758.758 0 01-.687-.436 10.592 10.592 0 00-2.415-3.3.79.79 0 01-.042-.043 10.752 10.752 0 00-.83-.682.755.755 0 01-.193-1.002 7.154 7.154 0 00-.364-8.025.755.755 0 01.403-1.18 5.692 5.692 0 016.706 3.094z" fill="#fff"/></svg>