<svg width="22" height="22" fill="none" xmlns="http://www.w3.org/2000/svg"><circle cx="11" cy="11" r="11" fill="#1D327B"/><path d="M15.178 12.33h-4.98a.213.213 0 01-.21-.22V8.98h1.7v1.325c0 .065.032.126.086.162a.194.194 0 00.185.02l1.527-.613a.198.198 0 00.123-.183V8.98h1.773v3.13c0 .118-.086.22-.204.22zm-1.963-3.35v.578l-1.133.456V8.98h1.133zm-1.099-.394l.22-1.404h.645l.202 1.404h-1.067zm2.67-1.266l.513 1.266h-1.717l-.202-1.404h1.204a.222.222 0 01.202.138zm-4.197 0a.223.223 0 01.202-.138h1.148l-.22 1.404h-1.642l.512-1.266zm-3.062-.68H6v-.591h2.315v6.357a1.996 1.996 0 00-.59-.032V6.837a.198.198 0 00-.198-.197zm.382 9.32a1.601 1.601 0 110-3.202 1.601 1.601 0 010 3.202zM16 14.546H9.894a1.986 1.986 0 00-.032-.591H16v.591z" fill="#fff"/><path d="M7.91 13.498a.86.86 0 100 1.72.86.86 0 000-1.72zm0 1.328a.466.466 0 110-.931.466.466 0 010 .93z" fill="#fff"/></svg>