<svg width="22" height="22" fill="none" xmlns="http://www.w3.org/2000/svg"><circle cx="11" cy="11" r="11" fill="#1D327B"/><path d="M14.307 7.744C13.574 6.628 12.365 6 11.004 6c-1.348 0-2.558.628-3.314 1.744a4.026 4.026 0 00-.465 3.71 3.5 3.5 0 00.582.965l2.942 3.465c.07.07.14.116.244.116.104 0 .174-.046.244-.116l2.953-3.465c.256-.303.466-.628.582-.966a4.026 4.026 0 00-.465-3.709zm-3.303 4.117c-1 0-1.825-.826-1.825-1.826s.825-1.826 1.825-1.826 1.826.826 1.826 1.826-.814 1.825-1.826 1.825z" fill="#fff"/></svg>