<svg width="24" height="27" viewBox="0 0 24 27" fill="none" xmlns="http://www.w3.org/2000/svg">
<path d="M3.27273 0C1.47811 0 0 1.47811 0 3.27273V13.0909H2.18182V3.27273C2.18182 2.65861 2.65861 2.18182 3.27273 2.18182H13.0909V8.72727H19.6364V13.0909H21.8182V7.18466L14.6335 0H3.27273ZM15.2727 3.72443L18.0938 6.54545H15.2727V3.72443ZM0 15.2727V26.1818H3.27273C5.06734 26.1818 6.54545 24.7037 6.54545 22.9091V18.5455C6.54545 16.7508 5.06734 15.2727 3.27273 15.2727H0ZM12 15.2727C10.2054 15.2727 8.72727 16.7508 8.72727 18.5455V22.9091C8.72727 24.7037 10.2054 26.1818 12 26.1818C13.7946 26.1818 15.2727 24.7037 15.2727 22.9091V18.5455C15.2727 16.7508 13.7946 15.2727 12 15.2727ZM20.7273 15.2727C18.9327 15.2727 17.4545 16.7508 17.4545 18.5455V20.7273V22.9091C17.4545 24.7037 18.9327 26.1818 20.7273 26.1818C22.5219 26.1818 24 24.7037 24 22.9091H21.8182C21.8182 23.5232 21.3414 24 20.7273 24C20.1132 24 19.6364 23.5232 19.6364 22.9091V20.7273V18.5455C19.6364 17.9313 20.1132 17.4545 20.7273 17.4545C21.3414 17.4545 21.8182 17.9313 21.8182 18.5455H24C24 16.7508 22.5219 15.2727 20.7273 15.2727ZM2.18182 17.4545H3.27273C3.88684 17.4545 4.36364 17.9313 4.36364 18.5455V22.9091C4.36364 23.5232 3.88684 24 3.27273 24H2.18182V17.4545ZM12 17.4545C12.6141 17.4545 13.0909 17.9313 13.0909 18.5455V22.9091C13.0909 23.5232 12.6141 24 12 24C11.3859 24 10.9091 23.5232 10.9091 22.9091V18.5455C10.9091 17.9313 11.3859 17.4545 12 17.4545Z" fill="#1D327B"/>
</svg>
