<svg width="30" height="30" viewBox="0 0 30 30" fill="none" xmlns="http://www.w3.org/2000/svg">
<path d="M23.8063 9.25195C24.2788 8.77945 24.5388 8.15195 24.5388 7.48445C24.5388 6.81695 24.2788 6.18945 23.8063 5.71695L21.8237 3.73445C21.3512 3.26195 20.7238 3.00195 20.0563 3.00195C19.3888 3.00195 18.7612 3.26195 18.29 3.7332L5 16.982V22.5007H10.5163L23.8063 9.25195ZM20.0563 5.50195L22.04 7.4832L20.0525 9.4632L18.07 7.48195L20.0563 5.50195ZM7.5 20.0007V18.0195L16.3 9.24695L18.2825 11.2295L9.48375 20.0007H7.5ZM5 25.0007H25V27.5007H5V25.0007Z" fill="#1D327B"/>
</svg>
