<svg width="250" height="95" viewBox="0 0 250 95" fill="none" xmlns="http://www.w3.org/2000/svg">
<path d="M87.5402 83.9298C87.3489 83.7378 87.3489 83.5459 87.3489 83.162C87.5402 82.3941 88.1142 82.0102 89.0708 82.0102H90.41L89.6447 83.9298H88.3055C88.1142 84.1217 87.7315 83.9298 87.5402 83.9298ZM86.201 87.7688L88.4968 85.2734H89.4534L88.6881 87.7688H90.41L92.7059 80.6666H89.4534C88.4968 80.6666 87.5402 80.8585 86.9663 81.2424C86.3923 81.6263 86.0097 82.2022 85.8183 83.162C85.627 84.1217 86.0097 84.6976 86.7749 85.0815L84.0965 87.7688H86.201ZM77.5916 87.7688L82.1833 82.97L80.6527 87.7688H82.3746L84.6704 80.6666H82.7572L78.1655 85.4654L79.6961 80.6666H77.9742L75.6784 87.7688H77.5916ZM68.7909 87.7688L69.7475 84.6976H72.6173L71.6607 87.7688H73.3826L75.6784 80.6666H73.9565L72.9999 83.3539H69.9388L70.8954 80.6666H69.1735L66.8777 87.7688H68.7909ZM60.9468 85.8493C61.1381 85.0815 62.0947 84.6976 64.1992 84.6976H64.3905L64.1992 85.0815C64.0079 85.6573 63.8166 86.0412 63.2426 86.2332C62.86 86.6171 62.286 86.6171 61.9034 86.6171C61.3294 86.8091 60.9468 86.4251 60.9468 85.8493ZM63.6252 87.001C63.6252 87.3849 63.4339 87.5769 63.4339 87.7688H64.9645C64.9645 87.3849 65.1558 86.8091 65.3471 86.2332L66.3037 83.3539C66.3037 83.1619 66.495 82.97 66.495 82.778C66.495 82.2022 66.495 81.8183 66.3037 81.4344C66.1124 81.0505 65.7298 80.8585 65.3471 80.6666C64.9645 80.4746 64.5818 80.4746 64.0079 80.4746C62.86 80.4746 61.9034 80.8585 60.9468 81.4344L61.3294 82.5861C62.0947 82.2022 62.86 81.8183 63.4339 81.8183C64.3905 81.8183 64.7732 82.2022 64.5818 82.778C64.5818 82.97 64.5818 83.162 64.3905 83.162C60.9468 83.162 59.2249 84.1217 58.8422 85.8493C58.6509 86.4251 58.8422 87.001 59.2249 87.193C59.6075 87.5769 60.1815 87.5769 60.7554 87.5769C62.286 87.9608 63.0513 87.7688 63.6252 87.001ZM52.3374 87.7688L54.2506 82.0102H57.1204L55.2072 87.7688H56.929L59.2249 80.6666H52.9113L50.6155 87.7688H52.3374ZM41.2408 87.7688L42.9627 82.5861L43.3453 87.7688H44.3019L48.3197 82.5861L46.5978 87.7688H48.3197L50.6155 80.6666H48.1283L44.4933 85.4654L44.3019 80.8585H42.0061L39.7103 87.9608H41.2408V87.7688ZM33.3967 86.0412C33.2054 85.6573 33.0141 85.2734 33.2054 84.6976C33.3967 83.9298 33.588 83.3539 34.162 82.778C34.7359 82.2022 35.3099 82.0102 36.0752 82.0102C36.6491 82.0102 37.0318 82.2022 37.2231 82.5861C37.4144 82.97 37.6057 83.3539 37.4144 83.9298C37.2231 84.6976 37.0318 85.2734 36.4578 85.8493C35.8839 86.4251 35.3099 86.6171 34.5446 86.6171C33.9707 86.6171 33.588 86.4252 33.3967 86.0412ZM37.6057 86.8091C38.5623 86.0412 39.1363 84.8895 39.3276 83.7378C39.5189 82.778 39.3276 82.0102 38.7537 81.4344C38.1797 80.8585 37.4144 80.6666 36.4578 80.6666C35.1186 80.6666 34.162 81.0505 33.2054 82.0102C32.2488 82.778 31.6748 83.9298 31.4835 85.0815C31.2922 86.0412 31.4835 86.8091 32.0575 87.3849C32.6314 87.9608 33.3967 88.1527 34.3533 88.1527C35.5012 87.9608 36.6491 87.5769 37.6057 86.8091ZM24.7873 87.7688L25.9352 84.3137L27.8484 87.7688H29.9529L27.8484 84.1217L32.2488 80.6666H29.9529L26.1265 83.7378L27.0831 80.6666H25.3613L23.0654 87.7688H24.7873Z" fill="black"/>
<path d="M121.401 68.7657C121.21 68.5737 121.21 68.3818 121.21 67.9979C121.401 67.2301 121.975 66.8462 122.932 66.8462H124.271L123.506 68.7657H122.166C121.784 68.9576 121.592 68.7657 121.401 68.7657ZM119.871 72.7967L122.166 70.3013H123.123L122.358 72.7967H124.08L126.375 65.6944H123.123C122.166 65.6944 121.21 65.8864 120.636 66.2703C120.062 66.6542 119.679 67.2301 119.488 68.1898C119.297 69.1496 119.679 69.7255 120.445 70.1094L117.766 72.7967H119.871ZM112.218 70.6852C112.409 69.9174 113.366 69.5335 115.47 69.5335H115.662L115.47 69.9174C115.279 70.4933 115.088 70.8772 114.514 71.0691C114.131 71.453 113.557 71.453 113.174 71.453C112.6 71.645 112.218 71.2611 112.218 70.6852ZM114.896 71.8369C114.896 72.2208 114.705 72.4128 114.705 72.6048H116.235C116.235 72.2208 116.427 71.645 116.618 71.0691L117.575 68.1898C117.575 67.9979 117.766 67.8059 117.766 67.614C117.766 67.0381 117.766 66.6542 117.575 66.2703C117.383 65.8864 117.001 65.6945 116.618 65.5025C116.235 65.3105 115.853 65.3105 115.279 65.3105C114.131 65.3105 113.174 65.6945 112.218 66.2703L112.6 67.422C113.366 67.0381 114.131 66.6542 114.705 66.6542C115.662 66.6542 116.044 67.0381 115.853 67.614C115.853 67.8059 115.853 67.9979 115.662 67.9979C112.218 67.9979 110.496 68.9576 110.113 70.6852C109.922 71.2611 110.113 71.8369 110.496 72.0289C110.879 72.4128 111.452 72.4128 112.026 72.4128C113.557 72.7967 114.322 72.6047 114.896 71.8369ZM103.608 72.7967L104.565 69.7255H107.435L106.478 72.7967H108.2L110.496 65.6944H108.774L107.817 68.3818H104.756L105.713 65.6944H103.991L101.695 72.7967H103.608ZM98.2514 72.7967L100.165 67.0381H102.46L102.843 65.6944H96.7209L96.3382 67.0381H98.6341L96.7209 72.7967H98.2514ZM88.8767 71.0691C88.6854 70.6852 88.4941 70.3013 88.6854 69.7255C88.8767 68.9576 89.0681 68.3818 89.642 67.8059C90.216 67.2301 90.7899 67.0381 91.5552 67.0381C92.1292 67.0381 92.5118 67.2301 92.7031 67.614C92.8945 67.9979 93.0858 68.3818 92.8945 68.9576C92.7031 69.7255 92.5118 70.4933 91.9379 70.8772C91.3639 71.453 90.7899 71.645 90.0247 71.645C89.642 71.453 89.2594 71.2611 88.8767 71.0691ZM86.3896 76.2518L87.9201 71.645C88.3028 72.6048 89.0681 72.9886 90.216 72.9886C91.3639 72.9886 92.3205 72.6048 93.2771 71.645C94.2337 70.8772 94.6163 69.7255 94.8077 68.5737C94.999 67.614 94.8077 66.8462 94.425 66.2703C94.0424 65.6945 93.2771 65.5025 92.3205 65.5025C91.1726 65.5025 90.216 65.8864 89.642 66.8462L90.0247 65.6944H88.3028L84.6677 76.2518H86.3896ZM79.6934 70.8772C79.5021 70.4933 79.3107 70.1094 79.5021 69.5335C79.6934 68.7657 79.8847 68.1898 80.4587 67.614C81.0326 67.0381 81.6066 66.8462 82.3719 66.8462C82.9458 66.8462 83.3285 67.0381 83.5198 67.422C83.7111 67.8059 83.9024 68.1898 83.7111 68.7657C83.5198 69.5335 83.3285 70.1094 82.7545 70.6852C82.1805 71.2611 81.6066 71.453 80.8413 71.453C80.4587 71.453 79.8847 71.2611 79.6934 70.8772ZM83.9024 71.645C84.859 70.8772 85.433 69.7255 85.6243 68.5737C85.8156 67.614 85.6243 66.8462 85.0503 66.2703C84.4764 65.6945 83.7111 65.5025 82.7545 65.5025C81.4153 65.5025 80.4587 65.8864 79.5021 66.8462C78.5455 67.614 77.9715 68.7657 77.7802 69.9174C77.5889 70.8772 77.7802 71.645 78.3541 72.2208C78.9281 72.7967 79.6934 73.1806 80.65 73.1806C81.7979 72.9887 82.9458 72.4128 83.9024 71.645ZM70.3187 72.7967L72.2319 67.0381H75.1017L73.1885 72.7967H74.9104L77.2062 65.6944H70.8927L68.5968 72.7967H70.3187ZM67.8315 71.645L67.0663 70.6852C66.4923 71.2611 65.9184 71.453 65.1531 71.453C64.5791 71.453 64.1965 71.2611 63.8138 70.8772C63.6225 70.4933 63.4312 70.1094 63.6225 69.5335C63.8138 68.7657 64.0051 68.1898 64.5791 67.614C65.1531 67.0381 65.727 66.8462 66.4923 66.8462C66.8749 66.8462 67.0663 66.8462 67.2576 67.0381C67.4489 67.2301 67.6402 67.422 67.8315 67.614L69.1708 66.6542C68.7881 65.8864 68.0229 65.5025 66.6836 65.5025C65.3444 65.5025 64.3878 65.8864 63.4312 66.8462C62.4746 67.8059 61.9006 68.7657 61.7093 69.9174C61.518 70.8772 61.7093 71.645 62.2833 72.2208C62.8572 72.7967 63.6225 72.9886 64.5791 72.9886C65.727 72.9886 66.8749 72.4128 67.8315 71.645ZM54.4391 72.7967L55.3957 69.7255H58.2655L57.3089 72.7967H59.0308L61.3267 65.6944H59.6048L58.6482 68.3818H55.7784L56.735 65.6944H55.0131L52.7173 72.7967H54.4391ZM46.595 70.6852C46.7864 69.9174 47.743 69.5335 49.8475 69.5335H50.0388L49.8475 69.9174C49.6562 70.4933 49.4648 70.8772 48.8909 71.0691C48.5082 71.453 47.9343 71.453 47.5516 71.453C46.9777 71.645 46.595 71.2611 46.595 70.6852ZM49.2735 71.8369C49.2735 72.2208 49.0822 72.4128 49.0822 72.6048H50.6127C50.6127 72.2208 50.8041 71.645 50.9954 71.0691L51.952 68.1898C51.952 67.9979 52.1433 67.8059 52.1433 67.614C52.1433 67.0381 52.1433 66.6542 51.952 66.2703C51.7607 65.8864 51.378 65.6945 50.9954 65.5025C50.6128 65.3105 50.2301 65.3105 49.6561 65.3105C48.5082 65.3105 47.5516 65.6945 46.595 66.2703L46.9777 67.422C47.743 67.0381 48.5082 66.6542 49.0822 66.6542C50.0388 66.6542 50.4214 67.0381 50.2301 67.614C50.2301 67.8059 50.2301 67.9979 50.0388 67.9979C46.595 67.9979 44.8732 68.9576 44.4905 70.6852C44.2992 71.2611 44.4905 71.8369 44.8731 72.0289C45.2558 72.4128 45.8298 72.4128 46.4037 72.4128C47.9343 72.7967 48.6996 72.6047 49.2735 71.8369ZM38.5596 71.0691C38.3683 70.6852 38.177 70.3013 38.3683 69.7255C38.5596 68.9576 38.7509 68.3818 39.3249 67.8059C39.8988 67.2301 40.4728 67.0381 41.2381 67.0381C41.812 67.0381 42.1947 67.2301 42.386 67.614C42.5773 67.9979 42.7686 68.3818 42.5773 68.9576C42.386 69.7255 42.1947 70.4933 41.6207 70.8772C41.0468 71.453 40.4728 71.645 39.7075 71.645C39.1336 71.453 38.7509 71.2611 38.5596 71.0691ZM36.0724 76.2518L37.603 71.645C37.9856 72.6048 38.7509 72.9886 39.8988 72.9886C41.0468 72.9886 42.0034 72.6048 42.96 71.645C43.9166 70.8772 44.2992 69.7255 44.4905 68.5737C44.6818 67.614 44.4905 66.8462 44.1079 66.2703C43.7252 65.6945 42.96 65.5025 42.0034 65.5025C40.8554 65.5025 39.8988 65.8864 39.3249 66.8462L39.7075 65.6944H37.9856L34.3506 76.2518H36.0724ZM31.8634 72.7967L33.7766 67.0381H36.0724L36.4551 65.6944H30.3328L29.9502 67.0381H32.246L30.3328 72.7967H31.8634Z" fill="black"/>
<path d="M136.903 54.1767L143.408 34.5975H136.521L139.008 27.1113H161.392L158.905 34.5975H152.209L145.704 54.1767H136.903Z" fill="#1D327B"/>
<path d="M172.872 43.4308C172.681 44.7744 172.107 45.7342 171.342 46.502C170.576 47.2698 169.428 47.8457 168.28 47.8457C167.324 47.8457 166.559 47.6537 166.176 47.0779C165.793 46.502 165.602 45.9262 165.793 44.9664C165.985 43.8147 166.559 42.663 167.324 41.8951C168.089 41.1273 169.237 40.5515 170.385 40.5515C171.342 40.5515 172.107 40.7434 172.489 41.3193C172.872 41.8952 173.063 42.471 172.872 43.4308ZM180.142 35.9446C178.994 34.409 177.081 33.4492 174.403 33.4492C172.107 33.4492 170.002 34.409 168.28 36.1366L169.046 34.0251H161.01L151.253 63.3939H159.862L163.497 52.6445C163.88 53.2204 164.454 53.7962 165.411 54.1801C166.367 54.564 167.324 54.756 168.28 54.756C171.533 54.756 174.403 53.6043 176.89 51.1089C179.377 48.6135 180.908 45.7342 181.481 42.2791C181.864 39.5917 181.481 37.6722 180.142 35.9446Z" fill="#1D327B"/>
<path d="M194.305 45.9228L194.114 46.4986C193.731 47.2665 193.349 48.0343 192.584 48.6101C191.818 49.186 191.053 49.3779 190.288 49.3779C189.14 49.3779 188.566 48.994 188.757 48.0343C188.948 46.6906 190.67 45.9228 193.731 45.9228H194.305ZM201.767 35.1734C200.428 34.0217 198.132 33.2539 195.262 33.2539C193.731 33.2539 192.01 33.6378 190.096 34.2137C188.183 34.7895 186.653 35.7493 185.313 36.901L188.375 41.124C189.905 39.9723 191.436 39.3964 193.158 39.3964C193.923 39.3964 194.497 39.5883 194.879 39.7803C195.262 39.9723 195.453 40.3562 195.262 40.932C195.262 41.124 195.262 41.3159 195.071 41.3159C186.461 41.3159 181.678 44.0033 180.913 49.186C180.722 50.9136 181.104 52.2572 182.061 53.217C183.209 54.1768 184.357 54.5607 186.079 54.5607C188.375 54.5607 190.479 53.7929 192.201 52.2572C192.01 52.8331 192.01 53.6009 191.818 54.1768H199.088C199.28 53.217 199.471 52.0653 199.854 51.1055L202.341 43.6194C202.723 42.4676 202.915 41.3159 203.106 40.3562C203.68 38.2447 203.106 36.5171 201.767 35.1734Z" fill="#1D327B"/>
<path d="M214.58 54.1765L217.067 46.8823H212.858L210.371 54.1765H201.762L208.458 34.0215H217.067L214.963 40.5479H219.172L221.276 34.0215H229.886L223.19 54.1765H214.58Z" fill="#1D327B"/>
<path d="M245.002 52.2572L242.515 46.4986C241.558 47.2665 240.601 47.6504 239.453 47.6504C238.497 47.6504 237.732 47.2665 237.158 46.6906C236.775 46.1147 236.584 45.3469 236.584 44.5791C236.775 43.4274 237.349 42.2757 238.306 41.5079C239.262 40.7401 240.219 40.1642 241.558 40.1642C242.706 40.1642 243.663 40.5481 243.854 41.3159L249.593 35.9412C248.446 34.2137 245.958 33.2539 242.515 33.2539C238.88 33.2539 235.818 34.4056 232.949 36.901C230.27 39.3964 228.548 42.2757 228.166 45.7308C227.783 48.4182 228.357 50.7216 229.887 52.2572C231.418 53.9848 233.714 54.7526 236.775 54.7526C239.836 54.7526 242.515 53.9848 245.002 52.2572Z" fill="#1D327B"/>
<path d="M58.8493 54.1767L64.3976 38.4365H64.2063L53.6837 54.1767H47.5614V38.4365H47.3701L42.5871 54.1767H34.3604L43.3524 27.1113H54.6403V41.8917H54.8316L64.2063 27.1113H76.6421L67.4587 54.1767H58.8493Z" fill="black"/>
<path d="M88.1229 41.1234C88.1229 41.3154 88.1229 41.5073 87.9316 41.5073H81.618C81.8094 40.9315 82.3833 40.3556 83.1486 39.7798C83.9139 39.2039 84.6791 39.0119 85.6357 39.0119C86.401 39.0119 87.1663 39.2039 87.5489 39.5878C88.1229 39.9717 88.1229 40.3556 88.1229 41.1234ZM93.8625 35.7487C92.3319 34.2131 90.2274 33.4453 87.1663 33.4453C83.5312 33.4453 80.2788 34.597 77.6003 36.9005C74.9218 39.2039 73.2 42.0832 72.626 45.5384C72.2434 48.4176 72.8173 50.7211 74.5392 52.2567C76.2611 53.7923 78.7482 54.5601 81.8094 54.5601C86.0184 54.5601 89.4621 53.4084 92.3319 50.913L87.1663 46.882C86.0184 47.8418 84.8705 48.2257 83.5312 48.2257C82.766 48.2257 82.0007 48.0337 81.4267 47.6498C80.8528 47.2659 80.4701 46.6901 80.6614 45.9223C80.6614 45.7303 80.6614 45.7303 80.6614 45.7303H94.4365C95.0104 44.5786 95.3931 43.4269 95.5844 42.0832C95.7757 39.5878 95.2017 37.4763 93.8625 35.7487Z" fill="black"/>
<path d="M93.6689 54.1765L100.365 34.0215H115.671L113.566 40.3559H106.87L102.278 54.1765H93.6689Z" fill="black"/>
<path d="M125.612 45.9228L125.421 46.4987C125.229 47.2665 124.656 48.0343 123.89 48.6101C123.125 49.186 122.36 49.3779 121.594 49.3779C120.446 49.3779 119.873 48.994 120.064 48.0343C120.255 46.6906 121.977 45.9228 125.038 45.9228H125.612ZM133.074 35.1734C131.734 34.0217 129.439 33.2539 126.569 33.2539C125.038 33.2539 123.316 33.6378 121.403 34.2137C119.49 34.7895 117.959 35.7493 116.62 36.901L119.681 41.124C121.212 39.9723 122.742 39.3964 124.464 39.3964C125.229 39.3964 125.803 39.5883 126.186 39.7803C126.569 39.9723 126.76 40.3562 126.569 40.932C126.569 41.124 126.569 41.3159 126.377 41.3159C117.768 41.3159 112.985 44.0033 112.22 49.186C112.028 50.9136 112.411 52.2572 113.368 53.217C114.516 54.1768 115.663 54.5607 117.385 54.5607C119.681 54.5607 121.786 53.7929 123.508 52.2572C123.316 52.8331 123.316 53.6009 123.125 54.1768H130.395C130.586 53.217 130.778 52.0653 131.16 51.1055L133.648 43.6194C134.03 42.4676 134.222 41.3159 134.413 40.3562C134.987 38.2447 134.413 36.5171 133.074 35.1734Z" fill="black"/>
<path d="M36.272 17.8975L28.0453 6.57227L23.2623 21.7365H7.19141L15.4182 33.0618H31.489L36.272 17.8975Z" fill="#1D327B"/>
<path d="M15.4169 33.0625L2.21582 37.2855L15.2256 46.6912L10.2513 62.0474L23.4523 57.6325L28.4266 42.4682L15.4169 33.0625Z" fill="#E30613"/>
</svg>
