<svg width="35" height="35" viewBox="0 0 35 35" fill="none" xmlns="http://www.w3.org/2000/svg">
<path d="M31.4337 11.911L18.3087 3.16102C17.8187 2.83435 17.1814 2.83435 16.6914 3.16102L3.56643 11.911C3.15956 12.1823 2.91602 12.6373 2.91602 13.1243V29.166C2.91602 30.7746 4.22414 32.0827 5.83268 32.0827H29.166C30.7746 32.0827 32.0827 30.7746 32.0827 29.166V13.1243C32.0827 12.6373 31.8391 12.1823 31.4337 11.911ZM17.4994 6.12727L27.995 13.1243L17.4994 20.1214L7.00372 13.1243L17.4994 6.12727ZM5.83268 29.166V15.85L16.69 23.0877C16.935 23.251 17.2179 23.3327 17.4994 23.3327C17.7808 23.3327 18.0637 23.251 18.3087 23.0877L29.166 15.85L29.1616 29.166H5.83268Z" fill="#1D327B"/>
</svg>
