<svg width="24" height="24" viewBox="0 0 24 24" fill="none" xmlns="http://www.w3.org/2000/svg">
<path fill-rule="evenodd" clip-rule="evenodd" d="M13.0418 2.63673C12.4019 2.24609 11.5973 2.24609 10.9574 2.63673L4.84847 6.36637C3.55891 7.15366 3.57448 9.03164 4.87691 9.79744L11.0088 13.4029C11.636 13.7716 12.4138 13.7708 13.0401 13.4006L19.1334 9.79957C20.4324 9.03186 20.4458 7.15704 19.158 6.37077L13.0418 2.63673ZM19.6027 11.4714C20.0828 11.1985 20.6933 11.3666 20.9662 11.8467C21.2195 12.2926 21.0927 12.8508 20.6889 13.1468L20.5908 13.2102L13.9962 16.9576C13.1665 17.4334 12.1538 17.4662 11.296 17.054L11.1146 16.9588L4.59784 13.2075C4.1192 12.9319 3.95454 12.3205 4.23007 11.8419C4.48592 11.3974 5.03136 11.2237 5.4912 11.4218L5.59563 11.4741L12.109 15.2236C12.3493 15.3606 12.6424 15.3775 12.8979 15.2729L13.0048 15.2207L19.6027 11.4714ZM19.5057 15.1312C19.9859 14.8584 20.5963 15.0264 20.8692 15.5066C21.1226 15.9525 20.9958 16.5107 20.5919 16.8066L20.4938 16.8701L13.8993 20.6175C13.0695 21.0933 12.0568 21.126 11.199 20.7138L11.0177 20.6187L4.50088 16.8673C4.02224 16.5918 3.85758 15.9804 4.13311 15.5018C4.38896 15.0573 4.9344 14.8836 5.39424 15.0816L5.49867 15.134L12.0121 18.8834C12.2524 19.0205 12.5454 19.0373 12.8009 18.9328L12.9078 18.8806L19.5057 15.1312Z" fill="white"/>
</svg>
