<svg width="26" height="26" viewBox="0 0 26 26" fill="none" xmlns="http://www.w3.org/2000/svg">
<path fill-rule="evenodd" clip-rule="evenodd" d="M6.75 14.25V11.75H14.4625L11.2375 8.5125L13 6.75L19.25 13L13 19.25L11.2375 17.4875L14.4625 14.25H6.75ZM0.5 13C0.500001 6.09644 6.09644 0.499999 13 0.5C19.9036 0.500001 25.5 6.09644 25.5 13C25.5 19.9036 19.9036 25.5 13 25.5C6.09644 25.5 0.499999 19.9036 0.5 13C0.5 13 0.500001 6.09644 0.5 13ZM3 13C3 7.47715 7.47715 3 13 3C18.5228 3 23 7.47715 23 13C23 18.5228 18.5228 23 13 23C7.47715 23 3 18.5228 3 13C3 13 3 7.47715 3 13Z" fill="#1D327B"/>
</svg>
