<svg width="14" height="14" viewBox="0 0 14 14" fill="none" xmlns="http://www.w3.org/2000/svg">
<path fill-rule="evenodd" clip-rule="evenodd" d="M13.4016 6.99961C13.4016 8.69699 12.7273 10.3249 11.527 11.5251C10.3268 12.7253 8.69895 13.3996 7.00156 13.3996C5.30418 13.3996 3.67631 12.7253 2.47608 11.5251C1.27585 10.3249 0.601563 8.69699 0.601562 6.99961C0.601563 5.30222 1.27585 3.67436 2.47608 2.47413C3.67631 1.27389 5.30418 0.599609 7.00156 0.599609C8.69895 0.599609 10.3268 1.27389 11.527 2.47413C12.7273 3.67436 13.4016 5.30222 13.4016 6.99961ZM7.00156 4.59961C6.861 4.59947 6.72288 4.63637 6.60112 4.70659C6.47936 4.77682 6.37824 4.87788 6.30796 4.99961C6.25722 5.09391 6.18805 5.17706 6.10457 5.24414C6.02109 5.31121 5.92499 5.36084 5.82198 5.39009C5.71896 5.41934 5.61112 5.4276 5.50485 5.4144C5.39858 5.40119 5.29604 5.36679 5.20331 5.31322C5.11058 5.25965 5.02955 5.18801 4.96503 5.10254C4.9005 5.01708 4.85379 4.91953 4.82766 4.81568C4.80154 4.71182 4.79653 4.60378 4.81293 4.49796C4.82934 4.39213 4.86682 4.29068 4.92316 4.19961C5.18734 3.7421 5.59509 3.38454 6.08318 3.18238C6.57128 2.98022 7.11244 2.94476 7.62274 3.0815C8.13304 3.21823 8.58396 3.51952 8.90558 3.93865C9.2272 4.35777 9.40154 4.87131 9.40156 5.39961C9.4017 5.8961 9.24792 6.38043 8.96137 6.78589C8.67483 7.19135 8.26962 7.498 7.80156 7.66361V7.79961C7.80156 8.01178 7.71728 8.21527 7.56725 8.36529C7.41722 8.51532 7.21374 8.59961 7.00156 8.59961C6.78939 8.59961 6.58591 8.51532 6.43588 8.36529C6.28585 8.21527 6.20156 8.01178 6.20156 7.79961V6.99961C6.20156 6.78744 6.28585 6.58395 6.43588 6.43392C6.58591 6.28389 6.78939 6.19961 7.00156 6.19961C7.21374 6.19961 7.41722 6.11532 7.56725 5.96529C7.71728 5.81527 7.80156 5.61178 7.80156 5.39961C7.80156 5.18744 7.71728 4.98395 7.56725 4.83392C7.41722 4.68389 7.21374 4.59961 7.00156 4.59961ZM7.00156 10.9996C7.21374 10.9996 7.41722 10.9153 7.56725 10.7653C7.71728 10.6153 7.80156 10.4118 7.80156 10.1996C7.80156 9.98744 7.71728 9.78395 7.56725 9.63392C7.41722 9.48389 7.21374 9.39961 7.00156 9.39961C6.78939 9.39961 6.58591 9.48389 6.43588 9.63392C6.28585 9.78395 6.20156 9.98744 6.20156 10.1996C6.20156 10.4118 6.28585 10.6153 6.43588 10.7653C6.58591 10.9153 6.78939 10.9996 7.00156 10.9996Z" fill="#ECECEC"/>
</svg>
