<svg width="22" height="22" viewBox="0 0 22 22" fill="none" xmlns="http://www.w3.org/2000/svg">
<circle cx="11" cy="11" r="11" fill="#1D327B"/>
<path d="M10.6098 14.7779L6.15975 10.3278C6.05675 10.2248 6 10.0875 6 9.94095C6 9.79445 6.05675 9.65705 6.15975 9.55412L6.48739 9.2264C6.70089 9.01315 7.04788 9.01315 7.26105 9.2264L10.9979 12.9633L14.739 9.22226C14.842 9.11933 14.9793 9.0625 15.1257 9.0625C15.2723 9.0625 15.4096 9.11933 15.5127 9.22226L15.8402 9.54998C15.9433 9.65298 16 9.7903 16 9.9368C16 10.0833 15.9433 10.2207 15.8402 10.3236L11.3861 14.7779C11.2828 14.8811 11.1448 14.9377 10.9982 14.9374C10.8509 14.9377 10.7131 14.8811 10.6098 14.7779Z" fill="white"/>
</svg>
