<svg width="22" height="22" viewBox="0 0 22 22" fill="none" xmlns="http://www.w3.org/2000/svg">
<circle cx="11" cy="11" r="11" fill="#1D327B"/>
<path d="M15.178 12.3294H10.1977C10.1408 12.3285 10.0866 12.3048 10.0473 12.2636C10.0079 12.2223 9.98673 12.1671 9.98837 12.1103V8.97967H11.6879V10.3048C11.6875 10.37 11.7199 10.431 11.7741 10.4673C11.8283 10.5048 11.8979 10.5123 11.9588 10.487L13.4859 9.87378C13.56 9.84347 13.6086 9.7715 13.6091 9.69145V8.97967H15.3824V12.1103C15.3824 12.2284 15.2962 12.3294 15.178 12.3294V12.3294ZM13.215 8.97967V9.55849L12.082 10.0142V8.97967H13.215ZM12.1164 8.58558L12.3357 7.18164H12.981L13.1829 8.58558H12.1164ZM14.7864 7.31961L15.2987 8.58558H13.5819L13.38 7.18164H14.5845C14.6733 7.18318 14.7526 7.23735 14.7864 7.31961ZM10.5893 7.31961C10.6231 7.23735 10.7025 7.18318 10.7914 7.18164H11.9391L11.7199 8.58558H10.0771L10.5893 7.31961Z" fill="white"/>
<path d="M7.52709 6.63996H6V6.04883H8.31527V12.406C8.18163 12.3781 8.04539 12.3642 7.90887 12.3641C7.84719 12.3637 7.78543 12.3669 7.72414 12.374V6.83701C7.72385 6.72828 7.63581 6.64025 7.52709 6.63996V6.63996ZM7.90887 15.9601C7.02467 15.9601 6.30788 15.2433 6.30788 14.3591C6.30788 13.4749 7.02467 12.7581 7.90887 12.7581C8.79306 12.7581 9.50985 13.4749 9.50985 14.3591C9.50812 15.2427 8.79239 15.9585 7.90887 15.9601ZM16 14.5464H9.89413C9.89903 14.4848 9.90394 14.4207 9.90394 14.3591C9.90384 14.2235 9.8898 14.0881 9.86209 13.9552H16V14.5464Z" fill="white"/>
<path d="M7.91035 13.498C7.43563 13.498 7.05078 13.8829 7.05078 14.3577C7.05078 14.8324 7.43563 15.2173 7.91035 15.2173C8.38507 15.2173 8.76992 14.8324 8.76992 14.3577C8.76954 13.8831 8.38488 13.4985 7.91035 13.498V13.498ZM7.91035 14.8257C7.65327 14.8257 7.44487 14.6173 7.44487 14.3601C7.44487 14.103 7.65327 13.8946 7.91035 13.8946C8.16743 13.8946 8.37583 14.103 8.37583 14.3601C8.37525 14.617 8.16714 14.825 7.91035 14.8257Z" fill="white"/>
</svg>
