<svg width="22" height="22" viewBox="0 0 22 22" fill="none" xmlns="http://www.w3.org/2000/svg">
<circle cx="11" cy="11" r="11" fill="#1D327B"/>
<path d="M14.3067 7.74419C13.5742 6.62791 12.3649 6 11.0044 6C9.65555 6 8.44625 6.62791 7.69043 7.74419C6.93462 8.83721 6.7602 10.2326 7.22532 11.4535C7.35322 11.7791 7.5509 12.1163 7.80671 12.4186L10.7486 15.8837C10.8183 15.9535 10.8881 16 10.9928 16C11.0974 16 11.1672 15.9535 11.2369 15.8837L14.1904 12.4186C14.4462 12.1163 14.6555 11.7907 14.7718 11.4535C15.2369 10.2326 15.0625 8.83721 14.3067 7.74419ZM11.0044 11.8605C10.0044 11.8605 9.17881 11.0349 9.17881 10.0349C9.17881 9.03488 10.0044 8.2093 11.0044 8.2093C12.0044 8.2093 12.83 9.03488 12.83 10.0349C12.83 11.0349 12.016 11.8605 11.0044 11.8605Z" fill="white"/>
</svg>
