<svg width="38" height="42" viewBox="0 0 38 42" fill="none" xmlns="http://www.w3.org/2000/svg">
<path d="M6.5 41.8327H31.5H33.5833C35.8833 41.8327 37.75 39.966 37.75 37.666V4.33268C37.75 2.03268 35.8833 0.166016 33.5833 0.166016H31.5H6.5H4.41667C2.11667 0.166016 0.25 2.03268 0.25 4.33268V37.666C0.25 39.966 2.11667 41.8327 4.41667 41.8327H6.5ZM19 6.41393C22.4312 6.41393 25.25 9.22852 25.25 12.6639C25.25 16.0973 22.4312 18.916 19 18.916C15.5687 18.916 12.75 16.0973 12.75 12.6639C12.75 9.22852 15.5687 6.41393 19 6.41393ZM6.5 31.9369C6.5 27.3139 12.1354 22.5619 19 22.5619C25.8646 22.5619 31.5 27.3139 31.5 31.9369V33.4994H6.5V31.9369Z" fill="#1D327B"/>
</svg>
